<svg width="60" height="60" viewBox="0 0 60 60" fill="none" xmlns="http://www.w3.org/2000/svg">
<path fill-rule="evenodd" clip-rule="evenodd" d="M44.7192 24.7473L43.7532 31.7979H32.1516V56.4748H25.1011V31.7979H14.5253V24.7473H25.1011V18.2855C25.1011 9.32081 30.6075 3.52525 39.1351 3.52525C42.7873 3.52525 45.0646 3.71916 46.3796 3.89541L46.2773 10.5723L40.8554 10.5828C40.7074 10.5688 37.1751 10.2938 34.6263 12.6346C32.9836 14.1398 32.1516 16.3043 32.1516 19.0611V24.7474H44.7192V24.7473ZM36.9918 15.2468C38.3807 13.953 40.5452 14.094 40.7039 14.1011L49.7497 14.0975L49.9436 1.05053L48.5828 0.715625C47.7086 0.500625 45.0329 0 39.1351 0C28.6334 0 21.5758 7.35019 21.5758 18.2855V21.2221H11V35.3232H21.5758V60H35.6768V35.3231H46.8237L48.7591 21.2221H35.6769V19.0611C35.6769 17.3443 36.121 16.0611 36.9918 15.2468Z" fill="white"/>
</svg>
