<svg width="348" height="137" viewBox="0 0 348 137" fill="none" xmlns="http://www.w3.org/2000/svg">
<g filter="url(#filter0_d_15_288)">
<path d="M327.721 53.2172L275.089 10.1996C271.197 7.01907 265.657 5.20312 259.845 5.20312H141.44H135.844H-0.0789499C-6.11068 5.20312 -11 8.80544 -11 13.2488V113.431C-11 117.874 -6.11029 121.477 -0.0789499 121.477H135.844H141.44H259.845C265.657 121.477 271.196 119.661 275.088 116.48L327.721 73.4625C334.76 67.7101 334.76 58.9696 327.721 53.2172Z" fill="url(#paint0_linear_15_288)"/>
</g>
<path d="M27.371 59.576C27.371 60.552 27.147 61.448 26.699 62.264C26.251 63.064 25.563 63.712 24.635 64.208C23.707 64.704 22.555 64.952 21.179 64.952H18.635V71H14.531V54.152H21.179C22.523 54.152 23.659 54.384 24.587 54.848C25.515 55.312 26.211 55.952 26.675 56.768C27.139 57.584 27.371 58.52 27.371 59.576ZM20.867 61.688C21.651 61.688 22.235 61.504 22.619 61.136C23.003 60.768 23.195 60.248 23.195 59.576C23.195 58.904 23.003 58.384 22.619 58.016C22.235 57.648 21.651 57.464 20.867 57.464H18.635V61.688H20.867ZM37.4755 71.168C35.8915 71.168 34.4355 70.8 33.1075 70.064C31.7955 69.328 30.7475 68.304 29.9635 66.992C29.1955 65.664 28.8115 64.176 28.8115 62.528C28.8115 60.88 29.1955 59.4 29.9635 58.088C30.7475 56.776 31.7955 55.752 33.1075 55.016C34.4355 54.28 35.8915 53.912 37.4755 53.912C39.0595 53.912 40.5075 54.28 41.8195 55.016C43.1475 55.752 44.1875 56.776 44.9395 58.088C45.7075 59.4 46.0915 60.88 46.0915 62.528C46.0915 64.176 45.7075 65.664 44.9395 66.992C44.1715 68.304 43.1315 69.328 41.8195 70.064C40.5075 70.8 39.0595 71.168 37.4755 71.168ZM37.4755 67.424C38.8195 67.424 39.8915 66.976 40.6915 66.08C41.5075 65.184 41.9155 64 41.9155 62.528C41.9155 61.04 41.5075 59.856 40.6915 58.976C39.8915 58.08 38.8195 57.632 37.4755 57.632C36.1155 57.632 35.0275 58.072 34.2115 58.952C33.4115 59.832 33.0115 61.024 33.0115 62.528C33.0115 64.016 33.4115 65.208 34.2115 66.104C35.0275 66.984 36.1155 67.424 37.4755 67.424ZM56.9667 71L53.4627 64.64H52.4787V71H48.3747V54.152H55.2627C56.5907 54.152 57.7187 54.384 58.6467 54.848C59.5907 55.312 60.2947 55.952 60.7587 56.768C61.2227 57.568 61.4547 58.464 61.4547 59.456C61.4547 60.576 61.1347 61.576 60.4947 62.456C59.8707 63.336 58.9427 63.96 57.7107 64.328L61.5987 71H56.9667ZM52.4787 61.736H55.0227C55.7747 61.736 56.3347 61.552 56.7027 61.184C57.0867 60.816 57.2787 60.296 57.2787 59.624C57.2787 58.984 57.0867 58.48 56.7027 58.112C56.3347 57.744 55.7747 57.56 55.0227 57.56H52.4787V61.736ZM81.2369 54.152V57.44H76.7729V71H72.6689V57.44H68.2049V54.152H81.2369ZM87.4006 57.44V60.848H92.8966V64.016H87.4006V67.712H93.6166V71H83.2966V54.152H93.6166V57.44H87.4006ZM115.361 54.152V71H111.257V60.896L107.489 71H104.177L100.385 60.872V71H96.281V54.152H101.129L105.857 65.816L110.537 54.152H115.361ZM131.152 59.576C131.152 60.552 130.928 61.448 130.48 62.264C130.032 63.064 129.344 63.712 128.416 64.208C127.488 64.704 126.336 64.952 124.96 64.952H122.416V71H118.312V54.152H124.96C126.304 54.152 127.44 54.384 128.368 54.848C129.296 55.312 129.992 55.952 130.456 56.768C130.92 57.584 131.152 58.52 131.152 59.576ZM124.648 61.688C125.432 61.688 126.016 61.504 126.4 61.136C126.784 60.768 126.976 60.248 126.976 59.576C126.976 58.904 126.784 58.384 126.4 58.016C126.016 57.648 125.432 57.464 124.648 57.464H122.416V61.688H124.648ZM141.257 71.168C139.673 71.168 138.217 70.8 136.889 70.064C135.577 69.328 134.529 68.304 133.745 66.992C132.977 65.664 132.593 64.176 132.593 62.528C132.593 60.88 132.977 59.4 133.745 58.088C134.529 56.776 135.577 55.752 136.889 55.016C138.217 54.28 139.673 53.912 141.257 53.912C142.841 53.912 144.289 54.28 145.601 55.016C146.929 55.752 147.969 56.776 148.721 58.088C149.489 59.4 149.873 60.88 149.873 62.528C149.873 64.176 149.489 65.664 148.721 66.992C147.953 68.304 146.913 69.328 145.601 70.064C144.289 70.8 142.841 71.168 141.257 71.168ZM141.257 67.424C142.601 67.424 143.673 66.976 144.473 66.08C145.289 65.184 145.697 64 145.697 62.528C145.697 61.04 145.289 59.856 144.473 58.976C143.673 58.08 142.601 57.632 141.257 57.632C139.897 57.632 138.809 58.072 137.993 58.952C137.193 59.832 136.793 61.024 136.793 62.528C136.793 64.016 137.193 65.208 137.993 66.104C138.809 66.984 139.897 67.424 141.257 67.424ZM161.346 67.832H166.722V71H157.242V54.152H161.346V67.832ZM172.783 54.152V71H168.679V54.152H172.783ZM194.838 54.152V71H190.734V60.896L186.966 71H183.654L179.862 60.872V71H175.758V54.152H180.606L185.334 65.816L190.014 54.152H194.838ZM201.893 54.152V71H197.789V54.152H201.893ZM216.987 54.152V57.44H212.523V71H208.419V57.44H203.955V54.152H216.987ZM229.535 68.024H223.247L222.239 71H217.943L224.039 54.152H228.791L234.887 71H230.543L229.535 68.024ZM228.479 64.856L226.391 58.688L224.327 64.856H228.479ZM243.054 54.152C244.83 54.152 246.382 54.504 247.71 55.208C249.038 55.912 250.062 56.904 250.782 58.184C251.518 59.448 251.886 60.912 251.886 62.576C251.886 64.224 251.518 65.688 250.782 66.968C250.062 68.248 249.03 69.24 247.686 69.944C246.358 70.648 244.814 71 243.054 71H236.742V54.152H243.054ZM242.79 67.448C244.342 67.448 245.55 67.024 246.414 66.176C247.278 65.328 247.71 64.128 247.71 62.576C247.71 61.024 247.278 59.816 246.414 58.952C245.55 58.088 244.342 57.656 242.79 57.656H240.846V67.448H242.79ZM262.147 71.168C260.563 71.168 259.107 70.8 257.779 70.064C256.467 69.328 255.419 68.304 254.635 66.992C253.867 65.664 253.483 64.176 253.483 62.528C253.483 60.88 253.867 59.4 254.635 58.088C255.419 56.776 256.467 55.752 257.779 55.016C259.107 54.28 260.563 53.912 262.147 53.912C263.731 53.912 265.179 54.28 266.491 55.016C267.819 55.752 268.859 56.776 269.611 58.088C270.379 59.4 270.763 60.88 270.763 62.528C270.763 64.176 270.379 65.664 269.611 66.992C268.843 68.304 267.803 69.328 266.491 70.064C265.179 70.8 263.731 71.168 262.147 71.168ZM262.147 67.424C263.491 67.424 264.563 66.976 265.363 66.08C266.179 65.184 266.587 64 266.587 62.528C266.587 61.04 266.179 59.856 265.363 58.976C264.563 58.08 263.491 57.632 262.147 57.632C260.787 57.632 259.699 58.072 258.883 58.952C258.083 59.832 257.683 61.024 257.683 62.528C257.683 64.016 258.083 65.208 258.883 66.104C259.699 66.984 260.787 67.424 262.147 67.424ZM278.447 53.552L277.967 65.048H274.487L274.007 53.552H278.447ZM276.287 71.192C275.567 71.192 274.975 70.984 274.511 70.568C274.063 70.136 273.839 69.608 273.839 68.984C273.839 68.344 274.063 67.808 274.511 67.376C274.975 66.944 275.567 66.728 276.287 66.728C276.991 66.728 277.567 66.944 278.015 67.376C278.479 67.808 278.711 68.344 278.711 68.984C278.711 69.608 278.479 70.136 278.015 70.568C277.567 70.984 276.991 71.192 276.287 71.192Z" fill="white"/>
<circle cx="7.5" cy="112.5" r="2.5" fill="#D9D9D9"/>
<circle cx="17.5" cy="112.5" r="2.5" fill="#D9D9D9"/>
<circle cx="27.5" cy="112.5" r="2.5" fill="#D9D9D9"/>
<circle cx="37.5" cy="112.5" r="2.5" fill="#D9D9D9"/>
<circle cx="37.5" cy="112.5" r="2.5" fill="#D9D9D9"/>
<circle cx="47.5" cy="112.5" r="2.5" fill="#D9D9D9"/>
<circle cx="57.5" cy="112.5" r="2.5" fill="#D9D9D9"/>
<circle cx="67.5" cy="112.5" r="2.5" fill="#D9D9D9"/>
<circle cx="77.5" cy="112.5" r="2.5" fill="#D9D9D9"/>
<circle cx="87.5" cy="112.5" r="2.5" fill="#D9D9D9"/>
<circle cx="97.5" cy="112.5" r="2.5" fill="#D9D9D9"/>
<circle cx="107.5" cy="112.5" r="2.5" fill="#D9D9D9"/>
<circle cx="107.5" cy="112.5" r="2.5" fill="#D9D9D9"/>
<circle cx="117.5" cy="112.5" r="2.5" fill="#D9D9D9"/>
<circle cx="127.5" cy="112.5" r="2.5" fill="#D9D9D9"/>
<circle cx="137.5" cy="112.5" r="2.5" fill="#D9D9D9"/>
<circle cx="147.5" cy="112.5" r="2.5" fill="#D9D9D9"/>
<circle cx="157.5" cy="112.5" r="2.5" fill="#D9D9D9"/>
<circle cx="167.5" cy="112.5" r="2.5" fill="#D9D9D9"/>
<circle cx="177.5" cy="112.5" r="2.5" fill="#D9D9D9"/>
<circle cx="177.5" cy="112.5" r="2.5" fill="#D9D9D9"/>
<circle cx="187.5" cy="112.5" r="2.5" fill="#D9D9D9"/>
<circle cx="197.5" cy="112.5" r="2.5" fill="#D9D9D9"/>
<circle cx="207.5" cy="112.5" r="2.5" fill="#D9D9D9"/>
<circle cx="147.5" cy="112.5" r="2.5" fill="#D9D9D9"/>
<circle cx="157.5" cy="112.5" r="2.5" fill="#D9D9D9"/>
<circle cx="167.5" cy="112.5" r="2.5" fill="#D9D9D9"/>
<circle cx="177.5" cy="112.5" r="2.5" fill="#D9D9D9"/>
<circle cx="177.5" cy="112.5" r="2.5" fill="#D9D9D9"/>
<circle cx="187.5" cy="112.5" r="2.5" fill="#D9D9D9"/>
<circle cx="197.5" cy="112.5" r="2.5" fill="#D9D9D9"/>
<circle cx="207.5" cy="112.5" r="2.5" fill="#D9D9D9"/>
<circle cx="217.5" cy="112.5" r="2.5" fill="#D9D9D9"/>
<circle cx="227.5" cy="112.5" r="2.5" fill="#D9D9D9"/>
<circle cx="237.5" cy="112.5" r="2.5" fill="#D9D9D9"/>
<circle cx="247.5" cy="112.5" r="2.5" fill="#D9D9D9"/>
<circle cx="247.5" cy="112.5" r="2.5" fill="#D9D9D9"/>
<circle cx="257.5" cy="112.5" r="2.5" fill="#D9D9D9"/>
<circle cx="267.5" cy="112.5" r="2.5" fill="#D9D9D9"/>
<circle cx="7.5" cy="13.5" r="2.5" fill="#D9D9D9"/>
<circle cx="17.5" cy="13.5" r="2.5" fill="#D9D9D9"/>
<circle cx="27.5" cy="13.5" r="2.5" fill="#D9D9D9"/>
<circle cx="37.5" cy="13.5" r="2.5" fill="#D9D9D9"/>
<circle cx="37.5" cy="13.5" r="2.5" fill="#D9D9D9"/>
<circle cx="47.5" cy="13.5" r="2.5" fill="#D9D9D9"/>
<circle cx="57.5" cy="13.5" r="2.5" fill="#D9D9D9"/>
<circle cx="67.5" cy="13.5" r="2.5" fill="#D9D9D9"/>
<circle cx="77.5" cy="13.5" r="2.5" fill="#D9D9D9"/>
<circle cx="87.5" cy="13.5" r="2.5" fill="#D9D9D9"/>
<circle cx="97.5" cy="13.5" r="2.5" fill="#D9D9D9"/>
<circle cx="107.5" cy="13.5" r="2.5" fill="#D9D9D9"/>
<circle cx="107.5" cy="13.5" r="2.5" fill="#D9D9D9"/>
<circle cx="117.5" cy="13.5" r="2.5" fill="#D9D9D9"/>
<circle cx="127.5" cy="13.5" r="2.5" fill="#D9D9D9"/>
<circle cx="137.5" cy="13.5" r="2.5" fill="#D9D9D9"/>
<circle cx="147.5" cy="13.5" r="2.5" fill="#D9D9D9"/>
<circle cx="157.5" cy="13.5" r="2.5" fill="#D9D9D9"/>
<circle cx="167.5" cy="13.5" r="2.5" fill="#D9D9D9"/>
<circle cx="177.5" cy="13.5" r="2.5" fill="#D9D9D9"/>
<circle cx="177.5" cy="13.5" r="2.5" fill="#D9D9D9"/>
<circle cx="187.5" cy="13.5" r="2.5" fill="#D9D9D9"/>
<circle cx="197.5" cy="13.5" r="2.5" fill="#D9D9D9"/>
<circle cx="207.5" cy="13.5" r="2.5" fill="#D9D9D9"/>
<circle cx="147.5" cy="13.5" r="2.5" fill="#D9D9D9"/>
<circle cx="157.5" cy="13.5" r="2.5" fill="#D9D9D9"/>
<circle cx="167.5" cy="13.5" r="2.5" fill="#D9D9D9"/>
<circle cx="177.5" cy="13.5" r="2.5" fill="#D9D9D9"/>
<circle cx="177.5" cy="13.5" r="2.5" fill="#D9D9D9"/>
<circle cx="187.5" cy="13.5" r="2.5" fill="#D9D9D9"/>
<circle cx="197.5" cy="13.5" r="2.5" fill="#D9D9D9"/>
<circle cx="207.5" cy="13.5" r="2.5" fill="#D9D9D9"/>
<circle cx="217.5" cy="13.5" r="2.5" fill="#D9D9D9"/>
<circle cx="227.5" cy="13.5" r="2.5" fill="#D9D9D9"/>
<circle cx="237.5" cy="13.5" r="2.5" fill="#D9D9D9"/>
<circle cx="247.5" cy="13.5" r="2.5" fill="#D9D9D9"/>
<circle cx="247.5" cy="13.5" r="2.5" fill="#D9D9D9"/>
<circle cx="257.5" cy="13.5" r="2.5" fill="#D9D9D9"/>
<circle cx="267.5" cy="13.5" r="2.5" fill="#D9D9D9"/>
<circle cx="275.5" cy="108.5" r="2.5" fill="#D9D9D9"/>
<circle cx="282.5" cy="102.5" r="2.5" fill="#D9D9D9"/>
<circle cx="288.5" cy="96.5" r="2.5" fill="#D9D9D9"/>
<circle cx="294.5" cy="90.5" r="2.5" fill="#D9D9D9"/>
<circle cx="300.5" cy="85.5" r="2.5" fill="#D9D9D9"/>
<circle cx="305.5" cy="79.5" r="2.5" fill="#D9D9D9"/>
<circle cx="310.5" cy="73.5" r="2.5" fill="#D9D9D9"/>
<circle cx="315.5" cy="68.5" r="2.5" fill="#D9D9D9"/>
<circle cx="310.5" cy="52.5" r="2.5" fill="#D9D9D9"/>
<circle cx="315.5" cy="57.5" r="2.5" fill="#D9D9D9"/>
<circle cx="315.5" cy="57.5" r="2.5" fill="#D9D9D9"/>
<circle cx="275.633" cy="18.6327" r="2.5" transform="rotate(86.8719 275.633 18.6327)" fill="#D9D9D9"/>
<circle cx="282.006" cy="25.2953" r="2.5" transform="rotate(86.8719 282.006 25.2953)" fill="#D9D9D9"/>
<circle cx="288.324" cy="30.9584" r="2.5" transform="rotate(86.8719 288.324 30.9584)" fill="#D9D9D9"/>
<circle cx="294.643" cy="36.6224" r="2.5" transform="rotate(86.8719 294.643 36.6224)" fill="#D9D9D9"/>
<circle cx="299.963" cy="42.3407" r="2.5" transform="rotate(86.8719 299.963 42.3407)" fill="#D9D9D9"/>
<circle cx="306.227" cy="47.0057" r="2.5" transform="rotate(86.8719 306.227 47.0057)" fill="#D9D9D9"/>
<defs>
<filter id="filter0_d_15_288" x="-16" y="0.203125" width="364" height="136.273" filterUnits="userSpaceOnUse" color-interpolation-filters="sRGB">
<feFlood flood-opacity="0" result="BackgroundImageFix"/>
<feColorMatrix in="SourceAlpha" type="matrix" values="0 0 0 0 0 0 0 0 0 0 0 0 0 0 0 0 0 0 127 0" result="hardAlpha"/>
<feOffset dx="5" dy="5"/>
<feGaussianBlur stdDeviation="5"/>
<feComposite in2="hardAlpha" operator="out"/>
<feColorMatrix type="matrix" values="0 0 0 0 0 0 0 0 0 0 0 0 0 0 0 0 0 0 0.3 0"/>
<feBlend mode="normal" in2="BackgroundImageFix" result="effect1_dropShadow_15_288"/>
<feBlend mode="normal" in="SourceGraphic" in2="effect1_dropShadow_15_288" result="shape"/>
</filter>
<linearGradient id="paint0_linear_15_288" x1="173.5" y1="126" x2="172.5" y2="5.00001" gradientUnits="userSpaceOnUse">
<stop stop-color="#FF0000"/>
<stop offset="1" stop-color="#9C0000"/>
</linearGradient>
</defs>
</svg>
