<svg width="71" height="88" viewBox="0 0 71 88" fill="none" xmlns="http://www.w3.org/2000/svg">
<path d="M63.7704 26.389C63.4334 24.8365 62.7733 23.421 61.8561 22.2842C60.9389 21.1474 59.7968 20.3291 58.5442 19.9114C55.1207 18.2732 21.9606 17.4705 12.3413 19.9584C11.0886 20.3761 9.94645 21.1945 9.0292 22.3314C8.11194 23.4683 7.45177 24.884 7.11479 26.4366C5.56966 34.8388 5.45236 53.0042 7.15266 61.5939C7.48972 63.1465 8.14993 64.562 9.06717 65.6988C9.98442 66.8357 11.1265 67.6539 12.3791 68.0717C19.158 70.0055 51.3866 70.2777 58.5821 68.0717C59.8347 67.6539 60.9768 66.8357 61.894 65.6988C62.8112 64.562 63.4713 63.1464 63.8083 61.5939C65.4558 52.4401 65.5731 35.4016 63.7704 26.389Z" stroke="white" stroke-width="3" stroke-linecap="round" stroke-linejoin="round"/>
<path d="M45.2135 43.9912L29.762 33.0073V54.9749L45.2135 43.9912Z" stroke="white" stroke-width="3" stroke-linecap="round" stroke-linejoin="round"/>
</svg>
